<svg width="150" height="150" viewBox="0 0 150 150" fill="none" xmlns="http://www.w3.org/2000/svg">
<path d="M56.1746 53.4679C57.5869 53.3576 58.9234 53.3499 60.3119 53.644C61.796 53.9583 63.1852 54.5293 64.2521 55.522C66.2226 57.3548 67.6576 59.8104 69.2813 61.893C74.4751 68.443 79.4631 75.1207 84.2397 81.9178C91.4952 92.0339 99.1211 101.95 106.166 112.185C102.516 112.224 98.8605 112.184 95.2102 112.185C89.8785 104.156 84.0123 96.3954 78.2416 88.6151L59.4668 63.0255L58.1427 61.1189C54.8572 66.4113 50.9134 71.4342 47.2477 76.5249C41.8602 84.0439 36.5244 91.5923 31.2407 99.1695C28.1734 103.538 24.9747 107.81 22.1061 112.288C18.5867 112.344 15.0594 112.319 11.5391 112.333C13.4687 108.552 17.3922 103.726 19.9569 100.123L34.4548 79.5301L45.283 64.0541C47.0069 61.6016 48.6376 58.9881 50.584 56.6732C52.0801 54.8933 53.6671 53.7944 56.1746 53.4679Z" fill="#5AD885"/>
<path d="M138.283 37.6665C138.338 37.7055 138.368 37.7667 138.405 37.8203C138.62 38.1322 138.154 39.494 138.052 39.8714L130.822 65.8889C128.219 64.0936 125.725 62.0889 123.248 60.1585C120.568 64.4653 117.326 68.594 114.327 72.734C109.911 78.9164 105.459 85.0787 100.972 91.2201C99.8551 90.1096 98.8914 88.8434 97.889 87.649L95.0254 84.2674C102.064 74.3976 108.815 64.3461 116.192 54.6704C114.204 53.2147 111.857 52.1286 109.861 50.6589C109.417 50.3318 108.918 49.9954 108.866 49.4658C109.2 49.045 109.664 48.8514 110.169 48.6325C113.451 47.2095 116.946 46.0958 120.288 44.778C126.285 42.4141 132.221 39.896 138.283 37.6665Z" fill="#5AD885"/>
<path d="M127.317 70.5981L127.593 70.7058C127.83 71.9899 127.664 73.4912 127.663 74.7973L127.661 83.1353C127.652 92.8409 127.704 102.547 127.817 112.252C124.713 112.19 121.607 112.18 118.503 112.222L118.216 112.24L118.007 112.073C117.653 110.393 117.904 106.392 117.884 104.479C117.806 97.3226 117.683 90.1236 117.898 82.9696C121.034 78.8953 123.8 74.4098 127.317 70.5981Z" fill="#5AD885"/>
<path d="M59.4349 75.5845C60.448 75.922 61.3148 76.385 62.2321 76.8876C62.0677 83.6396 62.1676 90.4124 62.1783 97.1664C62.1863 102.15 62.0457 107.182 62.2772 112.16L55.3611 112.162L52.4985 112.182C52.5135 108.667 52.1775 86.998 52.8348 85.418C53.539 83.7256 54.9873 82.1155 56.0849 80.6068C57.2905 78.981 58.4081 77.3049 59.4349 75.5845Z" fill="#5AD885"/>
</svg>
