<svg width="529" height="128" viewBox="0 0 529 128" fill="none" xmlns="http://www.w3.org/2000/svg">
<path d="M71.3021 42.4679C72.7144 42.3576 74.0508 42.3499 75.4394 42.644C76.9235 42.9583 78.3127 43.5293 79.3796 44.522C81.35 46.3548 82.785 48.8104 84.4087 50.893C89.6025 57.443 94.5906 64.1207 99.3672 70.9178C106.623 81.0339 114.249 90.9504 121.294 101.185C117.644 101.224 113.988 101.184 110.338 101.185C105.006 93.1564 99.1397 85.3954 93.369 77.6151L74.5943 52.0255L73.2702 50.1189C69.9847 55.4113 66.0408 60.4342 62.3752 65.5249C56.9876 73.0439 51.6519 80.5923 46.3682 88.1695C43.3008 92.5376 40.1021 96.8096 37.2335 101.288C33.7142 101.344 30.1868 101.319 26.6665 101.333C28.5962 97.5525 32.5197 92.7261 35.0844 89.1229L49.5822 68.5301L60.4104 53.0541C62.1343 50.6016 63.7651 47.9881 65.7115 45.6732C67.2076 43.8933 68.7945 42.7944 71.3021 42.4679Z" fill="#5AD885"/>
<path d="M153.411 26.6665C153.466 26.7055 153.495 26.7667 153.532 26.8203C153.748 27.1322 153.282 28.494 153.18 28.8714L145.95 54.8889C143.347 53.0936 140.852 51.0889 138.375 49.1585C135.695 53.4653 132.454 57.594 129.455 61.734C125.039 67.9164 120.587 74.0787 116.1 80.2201C114.983 79.1096 114.019 77.8434 113.016 76.649L110.153 73.2674C117.191 63.3976 123.942 53.3461 131.32 43.6704C129.331 42.2147 126.985 41.1286 124.988 39.6589C124.544 39.3318 124.045 38.9954 123.994 38.4658C124.328 38.045 124.792 37.8514 125.296 37.6325C128.579 36.2095 132.073 35.0958 135.415 33.778C141.413 31.4141 147.349 28.896 153.411 26.6665Z" fill="#5AD885"/>
<path d="M142.445 59.5981L142.721 59.7058C142.958 60.9899 142.792 62.4912 142.791 63.7973L142.788 72.1353C142.779 81.8409 142.831 91.5466 142.944 101.252C139.84 101.19 136.735 101.18 133.63 101.222L133.343 101.24L133.135 101.073C132.78 99.3932 133.031 95.3921 133.011 93.4793C132.934 86.3226 132.811 79.1236 133.025 71.9696C136.162 67.8953 138.927 63.4098 142.445 59.5981Z" fill="#5AD885"/>
<path d="M74.5624 64.5845C75.5755 64.922 76.4423 65.385 77.3595 65.8876C77.1952 72.6396 77.295 79.4124 77.3057 86.1664C77.3137 91.1498 77.1731 96.1817 77.4046 101.16L70.4885 101.162L67.6259 101.182C67.6409 97.6665 67.3049 75.998 67.9623 74.418C68.6664 72.7256 70.1148 71.1155 71.2124 69.6068C72.4179 67.981 73.5355 66.3049 74.5624 64.5845Z" fill="#5AD885"/>
<path d="M312.538 57.7656C314.975 58.0204 317.552 57.9321 320.012 58.0103L320.017 78.5502C320.016 82.1619 320.259 85.9304 319.85 89.525C319.679 91.0297 319.331 92.5638 318.64 93.9516C317.102 97.0379 313.987 99.1463 310.493 100.266C305.077 102.001 298.362 101.57 293.206 99.3466C288.969 97.5199 287.198 94.5891 285.743 90.8021L292.985 90.8948C293.692 91.9958 294.357 92.9759 295.505 93.7641C298.649 95.9216 302.543 96.0407 306.291 95.5693C307.757 95.2437 309.28 94.8584 310.445 93.9591C313.923 91.2731 312.525 84.8743 312.829 81.1132C312.035 82.2001 311.262 83.3586 310.214 84.2684C307.827 86.3386 304.894 87.4417 301.543 87.3587C297.153 87.2497 292.457 85.7446 289.414 82.8648C286.239 79.8594 284.941 75.9085 285.102 71.8408C285.258 67.8759 287.001 64.077 290.341 61.3888C293.567 58.7919 298.285 57.6488 302.581 57.8935C307.006 58.1452 309.766 60.1846 312.571 62.9919L312.538 57.7656ZM303.853 81.6193C309.505 81.0359 313.564 76.4959 312.936 71.4617C312.308 66.4274 307.228 62.7911 301.571 63.3262C295.875 63.8648 291.756 68.4246 292.389 73.4935C293.021 78.5625 298.163 82.2067 303.853 81.6193Z" fill="#212121"/>
<path d="M379.094 47.011C381.841 46.9877 384.587 46.9398 387.331 47.0751C390.166 51.2896 392.387 55.9451 394.774 60.3766C397.953 66.2768 401.248 72.1229 404.384 78.0424C409.309 67.8843 415.851 57.0878 421.567 47.1669C424.129 47.1674 426.691 47.1841 429.254 47.2179C428.934 60.5822 429.299 74.0199 429.296 87.3908L422.149 87.4123L422.161 68.5867L422.193 59.7523C416.811 68.9189 412.105 78.4215 406.709 87.5986L402.089 87.5595C399.249 84.3489 397.26 79.7834 395.275 76.0799L386.157 59.0419C386.48 68.4422 386.173 77.9422 386.179 87.3548L379.046 87.3627C378.626 73.9566 378.978 60.4249 379.094 47.011Z" fill="#212121"/>
<path d="M214.508 47.8177C217.239 47.8098 219.981 47.9491 222.711 48.0339C222.895 61.2673 222.802 74.5125 222.814 87.7472C220.252 87.6458 217.678 87.6857 215.113 87.6875L215.087 72.9806C215.07 68.9256 214.838 64.839 215.086 60.7893C213.72 62.945 212.635 65.3227 211.472 67.5725C208.013 74.2621 204.832 81.2711 200.603 87.6014L194.721 87.6058C189.426 78.8926 185.159 69.5507 180.604 60.5186C180.887 63.9814 180.776 67.4921 180.771 70.9628L180.67 87.4845C178.326 87.6255 175.929 87.5618 173.577 87.5851C173.315 82.9217 173.483 78.1888 173.477 73.5192L173.429 47.8208L181.192 47.8388C184.192 51.6209 186.274 56.552 188.441 60.7537C191.628 66.9306 194.975 73.0786 197.699 79.4317C203.283 68.8764 208.721 58.2908 214.508 47.8177Z" fill="#212121"/>
<path d="M240.496 58.0131C241.085 57.9164 241.664 57.9116 242.26 57.9116C246.36 57.9121 251.201 58.9532 254.119 61.6696C255.741 63.1787 256.699 65.1381 257.195 67.159C258.305 71.6775 257.612 82.5451 257.568 87.647C255.287 87.5974 252.999 87.6167 250.716 87.604L250.683 82.4805C249.61 83.7278 248.605 84.9144 247.196 85.8813C244.203 87.9334 240.533 88.5287 236.857 88.0986C233.117 87.6615 230.243 86.2491 227.922 83.5968C227.448 82.7964 227.04 81.9626 226.863 81.0655C226.463 79.045 226.804 77.0307 228.234 75.3827C233.012 69.8758 243.722 70.5875 250.673 69.9109C250.192 67.6717 249.758 65.7558 247.671 64.2353C245.975 62.9999 243.741 62.5465 241.585 62.7442C238.389 63.0368 236.548 64.4949 234.662 66.6296C232.292 66.6265 229.945 66.4987 227.613 66.1182C228.261 64.8604 228.92 63.6703 229.889 62.5773C232.639 59.4747 236.295 58.4867 240.496 58.0131ZM236.991 82.4036C240.194 83.2414 243.581 82.8777 246.52 81.4692C248.52 80.511 249.818 79.2541 250.432 77.3035C250.745 76.311 251.204 74.9838 250.643 74.02C250.257 73.9949 250.009 73.9804 249.627 74.0586C245.74 74.4856 237.789 74.4663 235.317 77.3768C234.667 78.1413 234.485 79.1803 234.709 80.1086C234.939 81.0584 235.762 81.742 236.663 82.2319C236.772 82.2907 236.882 82.3461 236.991 82.4036Z" fill="#212121"/>
<path d="M448.486 58.019C448.96 57.9689 449.436 57.9373 449.913 57.9254C453.8 57.8182 458.137 58.7904 460.952 61.2744C462.506 62.66 463.586 64.4112 464.065 66.3231C464.799 69.1357 464.464 72.3226 464.449 75.2015L464.364 87.605C462.284 87.8273 460.149 87.7741 458.056 87.7952C457.897 85.9176 457.961 83.9937 457.934 82.1095C456.72 83.4151 455.495 84.879 453.994 85.9382C451.191 87.9174 446.849 88.4226 443.398 87.9868C439.932 87.5492 437.271 86.2238 435.182 83.7086C434.729 82.9618 434.396 82.1617 434.193 81.3327C433.697 79.3953 433.853 77.3494 435.089 75.6531C439.441 69.6831 451.119 70.727 458.036 69.3901C457.552 67.4817 457.165 65.8346 455.433 64.4723C453.772 63.1661 451.437 62.7646 449.278 62.9087C445.934 63.1319 444.221 64.6708 442.211 66.8323L435.595 65.8711C436.233 64.659 436.887 63.4908 437.84 62.4439C440.584 59.4283 444.348 58.4399 448.486 58.019ZM443.001 82.7456C445.458 83.8263 447.712 83.9344 450.331 83.1586C453.409 82.2457 455.74 80.4036 457.786 78.2307C457.838 76.6508 457.991 75.0108 457.748 73.4438L457.537 73.3453C456.061 73.7851 454.599 74.1959 453.062 74.4256C449.464 74.9638 442.949 74.8729 441.086 78.2232C440.701 78.916 440.745 79.6106 441.041 80.317C441.463 81.3231 442.109 82.0418 443.001 82.7456Z" fill="#212121"/>
<path d="M361.279 57.8101C364.293 57.9129 367.148 58.6641 369.314 60.6288C370.727 61.9103 371.674 63.5231 372.147 65.2632C372.977 68.3205 372.613 71.8259 372.615 74.9588L372.634 87.3552L365.428 87.3702C365.374 83.4443 365.432 79.5119 365.433 75.5852C365.434 73.1562 365.64 70.5426 365.11 68.1553C364.853 66.999 364.34 65.8449 363.465 64.9469C362.432 63.8882 361.001 63.3271 359.44 63.2481C355.963 63.0723 353.392 64.2119 350.859 66.2038C349.994 67.0649 349.328 68.0332 348.634 69.0041C348.231 75.0255 348.589 81.2648 348.603 87.3087L341.585 87.3596C341.511 77.6312 341.54 67.9023 341.672 58.1743C343.852 58.0662 346.043 58.0574 348.226 58.0166L348.196 63.0499C352.104 59.3323 355.636 58.118 361.279 57.8101Z" fill="#212121"/>
<path d="M468.756 58.3764C470.9 58.3171 473.312 58.0786 475.42 58.4344C478.645 58.9788 483.571 66.6182 485.403 69.0253C488.533 65.5946 491.137 61.7654 494.46 58.4709C497.015 58.2943 499.639 58.3936 502.204 58.3879C498.045 63.3351 493.758 68.1897 489.64 73.1659C493.897 77.9155 498.015 82.8913 501.943 87.8618C499.393 87.9115 496.862 87.9378 494.312 87.8513C490.968 84.7681 488.14 80.9095 485.438 77.3659C482.622 80.8361 479.709 84.3099 476.637 87.6035C473.99 87.6075 471.25 87.484 468.624 87.7964C472.632 82.8983 477.189 78.2112 480.971 73.1993C477.121 68.1163 472.531 63.513 468.756 58.3764Z" fill="#212121"/>
<path d="M264.151 57.936C266.491 58.0867 268.863 58.0081 271.208 57.9962L271.177 62.9953C271.934 62.2551 272.682 61.5003 273.47 60.7868C275.734 58.7373 278.221 58.1008 281.372 58.0938C282.391 58.092 283.399 57.9989 284.157 58.675C284.512 60.6168 284.272 62.7554 284.226 64.7236C282.895 64.4359 281.51 64.098 280.148 63.979C278.071 63.7971 276.026 64.2096 274.401 65.4094C272.698 66.6663 271.665 68.9012 271.421 70.8382C271.307 76.4655 271.147 82.1574 271.383 87.7812C268.993 87.6635 266.614 87.6934 264.222 87.7215C264.013 77.7989 264.214 67.8613 264.151 57.936Z" fill="#212121"/>
<path d="M327.166 57.9888C329.614 58.1131 332.079 58.0736 334.531 58.0832C334.606 67.9189 334.619 77.755 334.569 87.5911L327.157 87.4962L327.166 57.9888Z" fill="#212121"/>
<path d="M329.982 45.6682C332.48 45.2562 334.884 46.7156 335.365 48.9364C335.846 51.1572 334.225 53.3081 331.735 53.7532C329.217 54.2031 326.77 52.7414 326.284 50.4969C325.797 48.2524 327.457 46.0847 329.982 45.6682Z" fill="#212121"/>
</svg>
